<svg width="68" height="68" viewBox="0 0 68 68" fill="none" xmlns="http://www.w3.org/2000/svg">
<rect width="68" height="68" rx="16" fill="#2CD699"/>
<rect width="68" height="68" rx="16" stroke="#2CD699"/>
<path d="M40.6666 20.6666C40.6666 18.8333 42.1666 17.3333 43.9999 17.3333C45.8332 17.3333 47.3332 18.8333 47.3332 20.6666C47.3332 22.4999 45.8332 23.9999 43.9999 23.9999C42.1666 23.9999 40.6666 22.4999 40.6666 20.6666ZM48.6332 26.6333C47.2166 26.0166 45.6499 25.6666 43.9999 25.6666C42.8832 25.6666 41.8166 25.8333 40.7999 26.1333C41.7666 27.0499 42.3332 28.3333 42.3332 29.7166V30.6666H50.6666V29.7166C50.6666 28.3666 49.8666 27.1666 48.6332 26.6333ZM23.9999 23.9999C25.8333 23.9999 27.3333 22.4999 27.3333 20.6666C27.3333 18.8333 25.8333 17.3333 23.9999 17.3333C22.1666 17.3333 20.6666 18.8333 20.6666 20.6666C20.6666 22.4999 22.1666 23.9999 23.9999 23.9999ZM27.1999 26.1333C26.1833 25.8333 25.1166 25.6666 23.9999 25.6666C22.3499 25.6666 20.7833 26.0166 19.3666 26.6333C18.1333 27.1666 17.3333 28.3666 17.3333 29.7166V30.6666H25.6666V29.7166C25.6666 28.3333 26.2333 27.0499 27.1999 26.1333ZM30.6666 20.6666C30.6666 18.8333 32.1666 17.3333 33.9999 17.3333C35.8332 17.3333 37.3332 18.8333 37.3332 20.6666C37.3332 22.4999 35.8332 23.9999 33.9999 23.9999C32.1666 23.9999 30.6666 22.4999 30.6666 20.6666ZM40.6666 30.6666H27.3333V29.7166C27.3333 28.3666 28.1333 27.1666 29.3666 26.6333C30.7832 26.0166 32.3499 25.6666 33.9999 25.6666C35.6499 25.6666 37.2166 26.0166 38.6332 26.6333C39.8666 27.1666 40.6666 28.3666 40.6666 29.7166V30.6666ZM38.9999 40.6666C38.9999 38.8332 40.4999 37.3332 42.3332 37.3332C44.1666 37.3332 45.6666 38.8332 45.6666 40.6666C45.6666 42.4999 44.1666 43.9999 42.3332 43.9999C40.4999 43.9999 38.9999 42.4999 38.9999 40.6666ZM48.9999 50.6666H35.6666V49.7166C35.6666 48.3666 36.4666 47.1666 37.6999 46.6332C39.1166 46.0166 40.6832 45.6666 42.3332 45.6666C43.9832 45.6666 45.5499 46.0166 46.9666 46.6332C48.1999 47.1666 48.9999 48.3666 48.9999 49.7166V50.6666ZM22.3333 40.6666C22.3333 38.8332 23.8333 37.3332 25.6666 37.3332C27.4999 37.3332 28.9999 38.8332 28.9999 40.6666C28.9999 42.4999 27.4999 43.9999 25.6666 43.9999C23.8333 43.9999 22.3333 42.4999 22.3333 40.6666ZM32.3332 50.6666H18.9999V49.7166C18.9999 48.3666 19.7999 47.1666 21.0333 46.6332C22.4499 46.0166 24.0166 45.6666 25.6666 45.6666C27.3166 45.6666 28.8832 46.0166 30.2999 46.6332C31.5332 47.1666 32.3332 48.3666 32.3332 49.7166V50.6666ZM36.9832 35.6666H35.2499V33.5833C35.2499 32.8999 34.6832 32.3332 33.9999 32.3332C33.3166 32.3332 32.7499 32.8999 32.7499 33.5833V35.6666H31.0166C30.2666 35.6666 29.8999 36.5666 30.4332 37.0833L33.4166 40.0666C33.7499 40.3999 34.2666 40.3999 34.5999 40.0666L37.5832 37.0833C38.0999 36.5666 37.7332 35.6666 36.9832 35.6666Z" fill="white"/>
</svg>
