<svg width="68" height="68" viewBox="0 0 68 68" fill="none" xmlns="http://www.w3.org/2000/svg">
<rect width="68" height="68" rx="16" fill="#FFA903"/>
<rect width="68" height="68" rx="16" stroke="#FFA903"/>
<path fill-rule="evenodd" clip-rule="evenodd" d="M47.3334 19H20.6667C18.8334 19 17.3334 20.5 17.3334 22.3333V45.6667C17.3334 47.5 18.8334 49 20.6667 49H47.3334C49.1667 49 50.6667 47.5 50.6667 45.6667V22.3333C50.6667 20.5 49.1667 19 47.3334 19ZM29 42.3333H24C23.0834 42.3333 22.3334 41.5833 22.3334 40.6667C22.3334 39.75 23.0834 39 24 39H29C29.9167 39 30.6667 39.75 30.6667 40.6667C30.6667 41.5833 29.9167 42.3333 29 42.3333ZM29 35.6667H24C23.0834 35.6667 22.3334 34.9167 22.3334 34C22.3334 33.0833 23.0834 32.3333 24 32.3333H29C29.9167 32.3333 30.6667 33.0833 30.6667 34C30.6667 34.9167 29.9167 35.6667 29 35.6667ZM29 29H24C23.0834 29 22.3334 28.25 22.3334 27.3333C22.3334 26.4167 23.0834 25.6667 24 25.6667H29C29.9167 25.6667 30.6667 26.4167 30.6667 27.3333C30.6667 28.25 29.9167 29 29 29ZM45.1667 32.5333L39.8834 37.8167C39.2334 38.4667 38.1667 38.4667 37.5167 37.8167L35.1667 35.45C34.5167 34.8 34.5167 33.75 35.1667 33.1C35.8167 32.45 36.8667 32.45 37.5167 33.1L38.7 34.2833L42.8167 30.1667C43.4667 29.5167 44.5167 29.5167 45.1667 30.1667L45.1834 30.1833C45.8167 30.8333 45.8167 31.9 45.1667 32.5333Z" fill="white"/>
</svg>
