<svg width="68" height="68" viewBox="0 0 68 68" fill="none" xmlns="http://www.w3.org/2000/svg">
<rect width="68" height="68" rx="16" fill="#FF4930"/>
<rect width="68" height="68" rx="16" stroke="#FF4930"/>
<path d="M46.35 26.3499L38.3 18.2999C37.6833 17.6833 36.8333 17.3333 35.95 17.3333H24C22.1666 17.3333 20.6833 18.8333 20.6833 20.6666L20.6666 47.3333C20.6666 49.1666 22.15 50.6666 23.9833 50.6666H44C45.8333 50.6666 47.3333 49.1666 47.3333 47.3333V28.7166C47.3333 27.8333 46.9833 26.9833 46.35 26.3499ZM37.3333 35.6666C38.25 35.6666 39 36.4166 39 37.3333V42.3333C39 43.2499 38.25 43.9999 37.3333 43.9999H35.6666C35.6666 44.9166 34.9166 45.6666 34 45.6666C33.0833 45.6666 32.3333 44.9166 32.3333 43.9999H30.6666C29.75 43.9999 29 43.2499 29 42.3333C29 41.4166 29.75 40.6666 30.6666 40.6666H35.6666V38.9999H30.6666C29.75 38.9999 29 38.2499 29 37.3333V32.3333C29 31.4166 29.75 30.6666 30.6666 30.6666H32.3333C32.3333 29.7499 33.0833 28.9999 34 28.9999C34.9166 28.9999 35.6666 29.7499 35.6666 30.6666H37.3333C38.25 30.6666 39 31.4166 39 32.3333C39 33.2499 38.25 33.9999 37.3333 33.9999H32.3333V35.6666H37.3333ZM37.3333 27.3333C36.4166 27.3333 35.6666 26.5833 35.6666 25.6666V19.8333L43.1666 27.3333H37.3333Z" fill="white"/>
</svg>
