<svg width="68" height="68" viewBox="0 0 68 68" fill="none" xmlns="http://www.w3.org/2000/svg">
<rect width="68" height="68" rx="16" fill="#0368FF"/>
<rect width="68" height="68" rx="16" stroke="#0368FF"/>
<path d="M34 33.25C36.7167 33.25 39.1167 33.9 41.0667 34.75C42.8667 35.55 44 37.35 44 39.3V40.3333C44 41.25 43.25 42 42.3333 42H25.6667C24.75 42 24 41.25 24 40.3333V39.3167C24 37.35 25.1333 35.55 26.9333 34.7667C28.8833 33.9 31.2833 33.25 34 33.25ZM20.6667 33.6667C22.5 33.6667 24 32.1667 24 30.3333C24 28.5 22.5 27 20.6667 27C18.8333 27 17.3333 28.5 17.3333 30.3333C17.3333 32.1667 18.8333 33.6667 20.6667 33.6667ZM22.55 35.5C21.9333 35.4 21.3167 35.3333 20.6667 35.3333C19.0167 35.3333 17.45 35.6833 16.0333 36.3C14.8 36.8333 14 38.0333 14 39.3833V40.3333C14 41.25 14.75 42 15.6667 42H21.5V39.3167C21.5 37.9333 21.8833 36.6333 22.55 35.5ZM47.3333 33.6667C49.1667 33.6667 50.6667 32.1667 50.6667 30.3333C50.6667 28.5 49.1667 27 47.3333 27C45.5 27 44 28.5 44 30.3333C44 32.1667 45.5 33.6667 47.3333 33.6667ZM54 39.3833C54 38.0333 53.2 36.8333 51.9667 36.3C50.55 35.6833 48.9833 35.3333 47.3333 35.3333C46.6833 35.3333 46.0667 35.4 45.45 35.5C46.1167 36.6333 46.5 37.9333 46.5 39.3167V42H52.3333C53.25 42 54 41.25 54 40.3333V39.3833ZM34 22C36.7667 22 39 24.2333 39 27C39 29.7667 36.7667 32 34 32C31.2333 32 29 29.7667 29 27C29 24.2333 31.2333 22 34 22Z" fill="white"/>
</svg>
