<?xml version="1.0" encoding="utf-8"?>
<!-- Generator: Adobe Illustrator 15.0.0, SVG Export Plug-In . SVG Version: 6.00 Build 0)  -->
<!DOCTYPE svg PUBLIC "-//W3C//DTD SVG 1.1//EN" "http://www.w3.org/Graphics/SVG/1.1/DTD/svg11.dtd">
<svg version="1.1" id="Layer_1" xmlns="http://www.w3.org/2000/svg" xmlns:xlink="http://www.w3.org/1999/xlink" x="0px" y="0px"
	 width="250px" height="40px" viewBox="0 0 1320 156" enable-background="new 0 0 1320 156" xml:space="preserve">
<g>
	<g>
		<path d="M343.046,23c-6.423-2.577-11.946-6.054-17-10c0.364,6.364-3.15,8.85-2,16c-0.211,3.544,4.691,1.976,4,6
			c2.812,19.547,7.368,42.599,8,61c-14.912-1.422-36.192,3.525-45-4c3.249-5.969,10.163-6.925,10-14c-0.3-13.037-26.145-13.716-38-8
			c-2.551,3.448-3.273,8.727-4,14c3.849,0.081,14.495-3.277,15,5c-7.51,7.49-22.702,7.298-38,7c-12.763-15.237-3.154-52.846-12-72
			c-5.793,1.54-7.334,7.333-10,12c14.501,15.166,2.745,56.589,17,72c18.986,3.196,40.685,0.775,51-8c8.055,15.673,45.939,6.645,64,9
			c0.032-26.699-6.581-46.752-9-71C342.95,36.903,341.047,28.001,343.046,23z"/>
	</g>
	<g>
		<path d="M362.046,25c-7.563,11.098-2.76,24.395-1,42c1.107,11.07,2.539,22.986,3,32c0.231,4.533-3.052,8.403,2,12
			c13.183-22.11,1.541-60.776-1-86C364.046,25,363.046,25,362.046,25z"/>
	</g>
	<g>
		<path d="M1273.047,23c-5.951-2.383-10.307-6.36-16-9c-0.523,5.144-2.779,8.554-2,15c8.566,17.118,9.426,47.216,12,67
			c-9.667,0-19.333,0-29,0c-19.299-9.702-25.629-32.371-56-31c-4.916,3.418-9.972,6.694-12,13c18.444-1.109,35.214,7.208,45,18
			c-23.791-1.209-52.497,2.497-73-2c-7.492-20.939-1.523-49.168-9-70c-5.47,1.53-7.195,6.805-10,11
			c15.104,17.675,0.226,59.154,19,73c42.396,2.308,94.25,0.368,135,1c-0.014-26.32-6.582-46.085-9-70
			C1271.441,35.395,1273.936,30.89,1273.047,23z"/>
	</g>
	<g>
		<path d="M56.046,21c-4.89-1.11-6.994-5.006-13-5c-1.266,4.068-3.759,6.908-5,11c4.324,2.342,8.163,5.17,14,6
			C52.559,28.179,56.559,26.846,56.046,21z"/>
	</g>
	<g>
		<path d="M486.046,136c4.328,2.339,7.702,5.631,13,7c1.391-4.276,5.271-6.063,5-12C496.629,124.535,487.948,125.563,486.046,136z"
			/>
	</g>
	<g>
		<path d="M209.046,23c-6.112-2.555-11.431-5.902-16-10c-0.599,5.401-3.109,8.891-3,15c-0.113,4.113,4.673,3.327,5,7
			c1.634,21.365,6.094,39.906,8,61c-7.667,0-15.333,0-23,0c-3.417-10.917-6.924-21.742-16-27c-19.3,5.7-20.625,29.375-48,27
			c-1.393-12.606,0.039-28.039-10-32c-3.161,2.506-3.572,7.762-6,11c3.733,6.267,10.55,9.45,9,21c-15,0-30,0-45,0
			c-8.119-15.548-6.533-40.801-14-57c-4.164,3.57-6.119,9.816-4,17c-13.008,7.992-28.419,13.58-30,33
			c12.785,4.563,29.008,3.637,35-6c0.872,11.462,4.813,19.854,11,26c27.66-3.007,68.641,7.308,84-8c11.906,12.153,46.279,6.974,66,8
			c0.8-27.8-6.322-47.678-9-72C209.817,37.104,207.451,28.071,209.046,23z M49.046,74c-3.166,3.422-11.013,5.498-17,3
			c2.452-6.549,7.895-10.105,16-11C47.338,69.708,49.755,70.292,49.046,74z M153.046,88c0.282-5.385,3.371-7.963,8-9
			c5.607,2.726,7.714,8.953,9,16C161.851,95.195,157.6,91.446,153.046,88z"/>
	</g>
	<g>
		<path d="M764.047,68c-15.553,5.52,7.796,19.27-3,28c-14.301,0.968-8.966-17.7-17-23c1.651,16.176-2.947,27.786-20,23
			c-8.778-2.464-11.677-14.652-14-24c-9.473,2.547,0.87,14.911-5,22c-7.257,2.743-18.055,1.945-28,2
			c-10.64-17.026-8.638-46.695-14-69c-1.278-0.055-1.385-1.282-3-1c-7.532,12.405,0.612,23.17,0,37
			c-1.527,34.456-37.423,36.805-67,50c38.432,6.592,60.645-8.933,69-34c1.396,8.724,2.429,25.244,11,30
			c13.951-0.382,30.577,1.91,39-4c6.333,6.635,29.387,5.252,36,0c4.334,4.068,14.752,4.873,21,4
			C768.905,93.809,770.481,76.898,764.047,68z"/>
	</g>
	<g>
		<path d="M572.046,69c-20.223,4.777-20.556,29.444-48,27c-1.695-12.638,0.44-29.107-11-32c-1.474,4.193-3.714,7.62-5,12
			c4.324,5.342,10.36,8.974,9,20c-15,0-30,0-45,0c-8.951-14.334-8.414-42.526-14-57c-5.163,2.17-5.396,9.271-5,17
			c-12.917,7.749-27.442,13.891-30,32c6.112,2.329,15.349,5.66,23,4c6.044-1.312,7.037-7.211,12-8c2.039,9.961,4.834,19.166,11,25
			c28.116-2.884,69.123,7.123,85-8c6.71,6.466,21.519,9.574,33,8C588.409,89.305,581.732,77.647,572.046,69z M455.046,76
			c-4.134,1.618-11.015,3.254-16,1c1.694-6.973,9.196-8.138,14-12C456.322,66.492,456.606,72.517,455.046,76z M576.046,96
			c-6.396-1.937-12.215-4.452-16-9C564.777,71.432,579.224,85.059,576.046,96z"/>
	</g>
	<g>
		<path d="M505.046,130c3.72,2.28,7.005,4.995,12,6c1.501-3.832,4.559-6.108,5-11C515.419,116.679,503.63,119.733,505.046,130z"/>
	</g>
	<g>
		<path d="M1203.047,125c-4.353-2.314-7.52-5.813-14-6c-0.314,4.686-3.473,6.527-4,11c4.58,2.087,7.747,5.586,14,6
			C1198.571,130.524,1203.522,130.476,1203.047,125z"/>
	</g>
	<g>
		<path d="M1106.047,69c-15.114,3.063-21.266,24.467-39,27c-8.744,1.249-23.651,1.123-31-4c4.96-4.862,11.461-8.595,10-16
			c-2.696-13.667-47.675-15.699-41,8c4.047-1.197,16.4-1.076,14,6c-8.637,5.697-22.162,6.505-37,6c-8.269-15.398-7.164-40.169-14-57
			c-3.809,2.779-6.784,9.726-4,16c-12.092,8.724-30.615,15.849-30,34c8.218,2.125,19.266,3.911,26,2c3.213-2.121,3.937-6.729,9-7
			c0.971,10.029,4.332,17.668,9,24c17.478,2.676,39.451,1.552,48-8c9.186,13.521,52.332,12.431,63,1c6.311,7.023,17.771,8.896,32,8
			C1122.418,89.295,1116.396,76.983,1106.047,69z M950.047,77c1.736-7.264,8.193-9.807,16-11
			C970.23,76.604,958.981,79.945,950.047,77z M1111.047,95c-5.621,1.389-12.07-4.426-17-7
			C1097.807,73.038,1111.63,81.739,1111.047,95z"/>
	</g>
	<g>
		<path d="M836.047,46c-1.132,14.201-0.691,29.976-10,36c-14.146-20.854-24.463-45.537-47-58c-10.36,13.182,2.963,28.875,13,34
			c3.156,0.489,3.531-1.802,7-1c9.784,9.883,18.92,20.414,23,36c-6.306,5.694-12.323,11.677-21,15c-0.865,4.469-2.429,8.237-2,14
			c12.629,2.874,26.834-1.101,37-4c1.719-12.719-2.48-19.52-5-28c6.778-10.888,11.771-23.562,11-42c3.078,0.7,1.922,0.7,5,0
			c0.652-5.015,1.884-9.45,3-14c-5.776-2.557-10.06-6.607-16-9C831.201,31.379,830.971,42.153,836.047,46z M812.047,109
			c4.259-4.074,8.598-8.068,13-12c3.076,1.257,3.271,5.396,5,8C827.754,109.571,816.648,109.999,812.047,109z"/>
	</g>
	<g>
		<path d="M956.047,28c-8.502-5.904-15.652-7.372-18,5c3.577,3.09,7.681,5.653,13,7C952.556,35.842,956.134,33.753,956.047,28z"/>
	</g>
	<g>
		<path d="M616.046,51c4.678,1.011,3.322-4.011,8-3c12.752,4.914,17.742,17.591,26,27c0.79-30.15-27.457-45.184-52-50
			C592.626,35.609,604.353,48.287,616.046,51z"/>
	</g>
	<g>
		<path d="M974.047,22c-4.353-2.314-7.52-5.813-14-6c0.027,5.027-4.027,5.973-4,11c4.58,2.086,7.747,5.586,14,6
			C969.977,27.93,973.584,26.537,974.047,22z"/>
	</g>
	<g>
		<path d="M459.046,33c1.266-4.068,3.759-6.908,5-11c-4.58-2.086-7.747-5.586-14-6c0.404,5.108-6,7.487-4,11
			C450.056,29.324,453.847,31.866,459.046,33z"/>
	</g>
	<g>
		<path d="M440.046,40c2.068-3.599,5.235-6.099,6-11c-3.968-2.366-8.032-4.634-12-7c-2.154,3.513-5.442,5.892-6,11
			C430.548,36.832,435.882,37.831,440.046,40z"/>
	</g>
	<g>
		<path d="M1295.047,23c-15.596,21.367,5.105,60.186-1,88C1315.102,99.794,1296.234,43.759,1295.047,23z"/>
	</g>
	<g>
		<path d="M97.046,130c3.72,2.28,7.005,4.995,12,6c1.974-3.693,5.119-6.215,5-12C106.584,118.708,97.39,117.235,97.046,130z"/>
	</g>
	<g>
		<path d="M79.046,137c4.502,1.498,6.96,5.04,12,6c2.37-3.297,3.907-7.427,6-11C90.587,125.55,78.947,123.629,79.046,137z"/>
	</g>
	<g>
		<path d="M39.046,29c-4.031-2.635-8.366-4.967-13-7c-1.501,3.833-4.559,6.108-5,11c3.179,3.155,7.159,5.507,12,7
			C35.271,36.558,37.563,33.183,39.046,29z"/>
	</g>
	<g>
		<path d="M874.047,25c-0.667,0-1.333,0-2,0c-9.395,26.512,5.953,56.577,2,86c8.594-4.354,9.6-16.593,9-28
			C882.021,63.484,878.742,38.429,874.047,25z"/>
	</g>
</g>
</svg>
